<?xml version="1.0" standalone="no"?>
<!DOCTYPE svg PUBLIC "-//W3C//DTD SVG 20010904//EN"
 "http://www.w3.org/TR/2001/REC-SVG-20010904/DTD/svg10.dtd">
<svg version="1.0" xmlns="http://www.w3.org/2000/svg"
 width="256.000000pt" height="256.000000pt" viewBox="0 0 256.000000 256.000000"
 preserveAspectRatio="xMidYMid meet">

<g transform="translate(0.000000,256.000000) scale(0.100000,-0.100000)"
fill="#000000" stroke="none">
<path d="M533 2386 c-179 -44 -324 -193 -362 -374 -7 -36 -11 -279 -11 -746 0
-676 1 -696 21 -762 26 -84 49 -124 112 -191 63 -67 125 -106 211 -132 66 -20
86 -21 776 -21 690 0 710 1 776 21 88 27 150 66 217 139 59 63 91 121 113 203
18 68 21 1404 3 1489 -39 186 -191 338 -377 377 -79 16 -1409 14 -1479 -3z
m1425 -79 c97 -26 171 -69 235 -136 117 -123 142 -225 152 -628 l7 -263 -1062
0 -1063 0 6 298 c6 320 13 374 64 478 30 61 111 150 171 188 59 37 155 67 247
76 44 4 328 7 630 6 474 -2 559 -5 613 -19z"/>
</g>
</svg>
