<?xml version="1.0" standalone="no"?>
<!DOCTYPE svg PUBLIC "-//W3C//DTD SVG 20010904//EN"
 "http://www.w3.org/TR/2001/REC-SVG-20010904/DTD/svg10.dtd">
<svg version="1.0" xmlns="http://www.w3.org/2000/svg"
 width="256.000000pt" height="256.000000pt" viewBox="0 0 256.000000 256.000000"
 preserveAspectRatio="xMidYMid meet">

<g transform="translate(0.000000,256.000000) scale(0.100000,-0.100000)"
fill="#000000" stroke="none">
<path d="M530 2390 c-92 -22 -208 -94 -260 -162 -14 -18 -44 -69 -65 -113
l-40 -79 0 -751 0 -750 41 -85 c69 -144 162 -228 298 -269 66 -20 86 -21 776
-21 690 0 710 1 776 21 136 41 229 125 298 269 l41 85 0 745 0 745 -41 85
c-69 144 -162 228 -298 269 -66 21 -85 21 -780 20 -391 -1 -727 -5 -746 -9z
m143 -100 c20 0 20 -1 2 -13 -36 -27 -7 -37 101 -37 106 0 123 7 92 38 -9 9
-7 12 10 12 14 0 22 6 22 18 1 16 1 16 14 0 7 -10 21 -18 32 -18 14 0 15 -3 6
-12 -31 -31 -14 -38 93 -38 107 0 124 7 93 38 -9 9 -7 12 9 12 11 0 24 8 28
18 6 16 7 16 16 0 6 -10 17 -18 26 -18 13 0 14 -3 5 -12 -31 -31 -14 -38 92
-38 108 0 134 9 100 35 -18 14 -18 14 3 15 13 0 24 8 29 22 l7 23 8 -23 c5
-14 17 -22 31 -22 20 -1 21 -2 6 -11 -10 -5 -18 -16 -18 -24 0 -11 52 -14 278
-19 152 -4 323 -9 379 -12 l102 -5 34 -42 c40 -50 69 -102 60 -111 -4 -3 -30
-6 -58 -6 -59 0 -68 -5 -54 -31 5 -11 12 -48 16 -84 l6 -65 53 0 c82 0 84 -2
84 -85 l0 -73 -32 -7 c-18 -3 -194 -9 -390 -12 l-358 -5 0 66 0 66 -36 0 c-41
0 -77 -33 -68 -62 6 -20 -20 -26 -31 -7 -5 6 -16 4 -32 -7 -25 -16 -26 -16
-20 8 10 40 -30 68 -98 68 -62 0 -101 -26 -92 -61 5 -20 -17 -27 -28 -9 -4 7
-12 7 -25 0 -27 -14 -30 -13 -30 13 0 37 -33 57 -95 57 -64 0 -95 -20 -95 -62
0 -26 -2 -27 -20 -16 -16 10 -24 10 -41 0 -19 -12 -20 -11 -18 10 2 14 -5 32
-19 46 -48 48 -189 17 -175 -39 6 -21 0 -23 -27 -9 -13 7 -21 7 -25 0 -11 -18
-37 -11 -31 8 3 9 -4 28 -16 42 -18 23 -28 25 -107 27 -47 1 -76 -1 -63 -3 26
-6 29 -19 6 -32 -11 -6 -15 -17 -11 -31 5 -22 -16 -30 -28 -11 -4 7 -12 7 -25
0 -26 -14 -29 -13 -23 10 3 11 0 26 -6 34 -10 11 -8 17 6 25 10 6 12 11 6 11
-15 0 -17 94 -4 153 5 21 5 39 0 43 -13 8 -11 24 4 24 6 1 29 23 50 50 48 63
107 103 175 120 50 13 65 31 40 46 -7 5 -4 10 10 15 12 5 22 16 23 26 0 15 2
14 11 -4 6 -13 20 -23 31 -23z m-283 -40 c0 -5 -2 -10 -4 -10 -3 0 -8 5 -11
10 -3 6 -1 10 4 10 6 0 11 -4 11 -10z m-150 -300 c0 -5 10 -10 23 -10 20 -1
21 -2 4 -14 -11 -9 -15 -20 -10 -32 6 -16 4 -17 -9 -6 -8 7 -22 10 -30 7 -16
-6 -17 15 -3 48 8 18 25 23 25 7z m275 -220 c3 -11 15 -20 26 -20 23 0 25 -15
4 -24 -11 -4 -14 -13 -9 -32 6 -25 5 -25 -16 -14 -16 9 -25 9 -33 1 -19 -19
-29 -12 -23 14 5 18 2 27 -9 31 -22 9 -18 24 6 24 12 0 23 8 26 20 3 11 9 20
13 20 5 0 12 -9 15 -20z m272 0 c4 -13 14 -20 32 -20 26 -1 26 -1 6 -18 -12
-10 -19 -26 -17 -40 3 -21 2 -22 -18 -12 -16 9 -25 9 -33 1 -18 -18 -28 -12
-21 14 4 18 1 27 -10 31 -23 9 -20 24 5 24 12 0 23 8 26 20 3 11 10 20 15 20
5 0 12 -9 15 -20z m273 -6 c0 -9 10 -14 27 -14 25 0 25 -1 9 -19 -10 -10 -16
-25 -14 -33 4 -17 -3 -21 -25 -12 -10 4 -23 2 -30 -5 -18 -18 -29 -13 -22 10
4 13 0 27 -11 40 -16 18 -16 19 9 19 17 0 28 7 32 20 7 22 25 18 25 -6z m273
6 c3 -12 14 -20 26 -20 25 0 28 -15 5 -24 -11 -4 -14 -13 -10 -31 7 -26 -3
-32 -21 -14 -8 8 -17 8 -33 -1 -21 -11 -22 -11 -17 11 5 18 1 29 -16 41 l-22
18 26 0 c18 0 28 6 32 20 3 11 10 20 15 20 5 0 12 -9 15 -20z m-1089 -15 c3
-8 13 -15 23 -15 16 -1 17 -1 1 -10 -11 -7 -14 -17 -10 -32 5 -20 3 -21 -10
-10 -9 7 -23 10 -32 6 -12 -4 -15 -2 -10 9 3 8 1 18 -5 21 -6 4 -4 14 7 26 21
23 28 24 36 5z m439 -125 c21 -1 21 -1 3 -15 -12 -9 -17 -22 -13 -35 6 -23 3
-24 -23 -10 -13 7 -21 7 -25 0 -11 -18 -25 -10 -25 15 0 13 -8 29 -17 34 -15
9 -14 10 9 11 21 0 29 6 34 26 l7 27 14 -27 c8 -16 22 -26 36 -26z m816 0 c23
-1 24 -2 9 -11 -10 -5 -18 -21 -18 -34 0 -25 -14 -33 -25 -15 -4 7 -12 7 -25
0 -26 -14 -29 -13 -23 10 4 13 -1 26 -13 35 -18 14 -18 14 7 15 21 0 29 6 34
28 l8 27 10 -27 c8 -20 18 -28 36 -28z m-1090 0 c25 0 25 0 4 -15 -14 -10 -19
-22 -16 -36 5 -18 3 -20 -13 -11 -13 7 -25 7 -38 0 -14 -8 -17 -7 -14 10 2 10
-3 26 -11 35 -12 15 -11 17 7 17 12 0 22 9 26 23 l7 22 11 -22 c7 -15 20 -23
37 -23z m514 20 c3 -13 14 -20 28 -20 21 0 21 -1 5 -19 -9 -10 -14 -25 -10
-35 7 -18 0 -20 -26 -6 -13 7 -21 7 -25 0 -10 -17 -28 -11 -21 6 4 10 -1 25
-10 35 -16 18 -16 19 5 19 14 0 25 7 28 20 3 11 9 20 13 20 4 0 10 -9 13 -20z
m270 0 c3 -13 14 -20 28 -20 21 0 21 -1 5 -19 -9 -10 -14 -25 -10 -35 7 -17
-11 -23 -21 -6 -4 7 -12 7 -25 0 -26 -14 -30 -13 -23 5 3 9 -3 25 -12 35 -17
19 -17 20 4 20 14 0 25 7 28 20 3 11 9 20 13 20 4 0 10 -9 13 -20z m1166 -76
l31 -6 0 -78 0 -77 -187 -6 c-104 -4 -281 -7 -395 -7 l-208 0 0 90 0 90 364 0
c200 0 378 -3 395 -6z m-1819 -54 c24 0 27 -15 4 -24 -12 -4 -14 -13 -10 -32
6 -23 5 -24 -15 -14 -15 9 -24 9 -32 1 -18 -18 -28 -12 -21 14 4 18 1 27 -10
31 -20 8 -11 24 13 24 11 0 22 10 25 23 l7 22 9 -22 c5 -13 18 -23 30 -23z
m542 0 c19 0 24 -15 8 -25 -5 -3 -10 -18 -10 -32 0 -22 -2 -24 -16 -12 -12 10
-20 10 -35 1 -17 -11 -19 -9 -19 12 0 14 -4 28 -10 31 -17 10 -11 25 9 25 12
0 23 9 27 23 l7 22 10 -22 c6 -13 18 -23 29 -23z m-298 15 c3 -8 15 -15 26
-15 23 0 27 -18 5 -26 -10 -4 -13 -14 -9 -31 6 -23 5 -24 -15 -13 -17 9 -26 9
-37 -1 -11 -9 -14 -7 -14 14 0 14 -4 29 -10 32 -17 10 -11 25 10 25 11 0 20 7
20 15 0 8 4 15 9 15 5 0 11 -7 15 -15z m546 0 c0 -8 9 -15 20 -15 22 0 27 -15
9 -26 -6 -3 -9 -17 -6 -30 5 -26 -2 -31 -20 -13 -8 8 -17 8 -33 -1 -21 -11
-22 -10 -16 13 4 17 1 27 -9 31 -22 8 -18 26 5 26 11 0 23 7 26 15 4 8 10 15
15 15 5 0 9 -7 9 -15z m-1064 -25 c18 -1 18 -1 1 -14 -11 -9 -15 -20 -11 -31
6 -14 4 -16 -12 -8 -10 6 -23 9 -29 7 -5 -2 -11 7 -11 21 -1 14 2 25 7 25 5 0
9 8 9 18 1 16 1 16 14 0 7 -10 22 -18 32 -18z m412 -120 c24 0 25 -1 7 -20
-10 -11 -15 -28 -12 -39 4 -17 2 -18 -19 -9 -18 8 -27 8 -40 -3 -16 -13 -17
-11 -10 14 5 20 2 29 -9 33 -21 9 -19 24 4 24 12 0 23 9 27 23 l7 22 10 -22
c7 -15 19 -23 35 -23z m814 0 c22 0 24 -16 3 -24 -11 -4 -14 -13 -9 -33 7 -25
6 -27 -10 -14 -12 11 -22 11 -40 3 -21 -9 -22 -8 -18 13 2 12 -1 26 -7 29 -18
11 -13 26 8 26 12 0 23 9 27 23 l7 22 10 -22 c6 -13 18 -23 29 -23z m-1092 0
c24 0 26 -15 5 -24 -11 -4 -14 -13 -9 -33 7 -25 6 -27 -9 -15 -9 8 -25 11 -38
7 -18 -6 -20 -4 -15 13 5 14 1 24 -11 31 -17 9 -17 10 2 17 11 4 24 14 29 22
7 13 10 13 18 -2 5 -9 18 -16 28 -16z m520 15 c0 -10 10 -15 27 -15 25 0 25
-1 9 -19 -12 -13 -15 -27 -11 -40 6 -20 4 -20 -19 -10 -20 9 -29 9 -41 -1 -14
-12 -15 -10 -10 13 5 20 3 28 -9 33 -23 9 -20 24 4 24 11 0 23 7 26 15 4 8 10
15 15 15 5 0 9 -7 9 -15z m274 0 c3 -8 15 -15 26 -15 23 0 27 -15 5 -24 -11
-4 -14 -13 -9 -33 7 -25 6 -27 -10 -14 -13 11 -22 11 -40 3 -21 -9 -23 -8 -19
9 3 11 -2 28 -12 39 -18 19 -17 20 8 20 17 0 27 5 27 15 0 8 4 15 9 15 5 0 11
-7 15 -15z m1196 -254 l0 -78 -31 -7 c-41 -8 -2107 -8 -2148 0 l-31 7 0 78 0
79 1105 0 1105 0 0 -79z m-47 -267 l37 -7 0 -72 c0 -60 -3 -74 -17 -80 -29
-10 -1328 -18 -1756 -10 -327 6 -401 10 -412 22 -10 10 -15 36 -15 78 l0 64
33 4 c54 6 2089 7 2130 1z m-16 -347 c17 -11 -4 -57 -53 -113 l-42 -49 -951 0
-952 0 -35 40 c-44 51 -67 93 -60 111 4 9 31 14 98 17 176 7 1983 2 1995 -6z"/>
</g>
</svg>
